<svg id="Ebene_1" data-name="Ebene 1" xmlns="http://www.w3.org/2000/svg" viewBox="0 0 22.68 22.68"><defs><style>.cls-1{fill:#575757;}.cls-2{fill:#fff;}</style></defs><title>Zeichenfläche 1ldpi</title><path class="cls-1" d="M0,11.34A11.34,11.34,0,1,1,11.34,22.68,11.34,11.34,0,0,1,0,11.34"/><path class="cls-2" d="M19.11,15.79a1.93,1.93,0,0,0-1.76-1.62H15.91a1.83,1.83,0,0,0-1.06.36,1.93,1.93,0,0,0-.77,1.26Zm-2.52-2.48a1.52,1.52,0,1,0-1.51-1.52,1.52,1.52,0,0,0,1.51,1.52M6.09,10.18a1.5,1.5,0,0,0-1.5,1.55,1.52,1.52,0,1,0,1.5-1.55m5.25-3.35A1.51,1.51,0,1,0,9.83,5.32a1.51,1.51,0,0,0,1.51,1.51m-7.77,9H8.63a.37.37,0,0,0,0-.11,1.89,1.89,0,0,0-1.5-1.57,6.78,6.78,0,0,0-2,0,1.88,1.88,0,0,0-1.59,1.7M8.81,9.42h5.06a.11.11,0,0,0,0-.06,1.92,1.92,0,0,0-1.78-1.67c-.46,0-.92,0-1.38,0a1.83,1.83,0,0,0-1.12.38,1.86,1.86,0,0,0-.77,1.35m2,2.11V15a.76.76,0,0,0,0,.15.5.5,0,0,0,1-.12V11.53H13.6a.5.5,0,0,0,.5-.34.51.51,0,0,0-.51-.66H9a.51.51,0,0,0-.47.52.49.49,0,0,0,.49.48h1.79"/></svg>