<svg id="Ebene_1" data-name="Ebene 1" xmlns="http://www.w3.org/2000/svg" viewBox="0 0 22.68 22.68"><defs><style>.cls-1{fill:#ec6602;}.cls-2{fill:#fff;}</style></defs><title>Zeichenfläche 1ldpi</title><path class="cls-1" d="M0,11.34A11.34,11.34,0,1,1,11.34,22.68,11.34,11.34,0,0,1,0,11.34"/><polyline class="cls-2" points="11.76 16.83 11.76 16.83 11.77 16.83 11.77 16.83 11.76 16.83"/><polygon class="cls-2" points="11.76 16.83 11.77 16.83 11.76 16.83 11.76 16.83"/><path class="cls-2" d="M11.76,16.83a2.31,2.31,0,0,1-1.4-.49,2.31,2.31,0,0,0,1.4.49"/><polygon class="cls-2" points="11.76 16.83 11.76 16.83 11.77 16.83 11.77 16.83 11.76 16.83"/><path class="cls-2" d="M11.76,16.83a2.49,2.49,0,0,0,1-.33A2.49,2.49,0,0,1,11.76,16.83Z"/><path class="cls-2" d="M11.76,16.83Z"/><path class="cls-2" d="M18.91,4.89l-.13,0L11.87,6.77a.31.31,0,0,1-.19,0L5.48,5.1l-.83-.22V6.09A25.39,25.39,0,0,0,5,9.88a19.14,19.14,0,0,0,1.14,4.21,11.65,11.65,0,0,0,2,3.41,6.06,6.06,0,0,0,2.29,1.71,3.23,3.23,0,0,0,2.83-.11,6,6,0,0,0,1.66-1.3A12.35,12.35,0,0,0,17,14.59a20.59,20.59,0,0,0,1.75-6.38A28.81,28.81,0,0,0,18.92,5S18.91,4.93,18.91,4.89Zm-4.14,9a4.71,4.71,0,0,1-1.93,2.52l-.12.07a2.49,2.49,0,0,1-1,.33h0v1.7a2.87,2.87,0,0,1-1.06-.23,4.63,4.63,0,0,1-1.42-1,9.78,9.78,0,0,1-2.1-3.14A17.81,17.81,0,0,1,6,10.07a25.33,25.33,0,0,1-.36-3.8V6.13l.1,0,6,1.61c.08,0,.11,0,.11.13q0,3.26,0,6.52a.78.78,0,0,0,0,.09c-.22,0-.44,0-.65-.06a7.92,7.92,0,0,1-2.54-.93l-.13-.07c0,.07,0,.12,0,.17a4.91,4.91,0,0,0,1.88,2.73,2.31,2.31,0,0,0,1.4.49h0V14.49a7.06,7.06,0,0,0,3.15-1.05C14.86,13.62,14.82,13.77,14.77,13.91Zm1.47-3.64a1.62,1.62,0,0,1-.94,1A2,2,0,0,1,13.05,11,.18.18,0,0,1,13,10.7a1.9,1.9,0,0,1,1.54-1.17l.16,0h.19a1.64,1.64,0,0,1,1.32.55A.24.24,0,0,1,16.24,10.27Z"/><path class="cls-2" d="M10.5,10.9c.06-.06.08-.11,0-.18a3.5,3.5,0,0,0-.24-.42,1.88,1.88,0,0,0-1.76-.73,1.39,1.39,0,0,0-1,.51.15.15,0,0,0,0,.19,2.73,2.73,0,0,0,.23.45,1.75,1.75,0,0,0,1.43.7A2,2,0,0,0,10.5,10.9Z"/></svg>