<svg id="Ebene_1" data-name="Ebene 1" xmlns="http://www.w3.org/2000/svg" viewBox="0 0 22.68 22.68"><defs><style>.cls-1{fill:#fff;}.cls-2{fill:#ec6602;}</style></defs><title>Zeichenfläche 1ldpi</title><path class="cls-1" d="M11.34.24A11.1,11.1,0,1,1,.24,11.34,11.1,11.1,0,0,1,11.34.24"/><path class="cls-2" d="M11.34,22.68A11.34,11.34,0,1,1,22.68,11.34,11.36,11.36,0,0,1,11.34,22.68Zm0-22.19A10.85,10.85,0,1,0,22.19,11.34,10.87,10.87,0,0,0,11.34.49Z"/><rect class="cls-2" x="5.63" y="4.86" width="2.87" height="12.95"/><rect class="cls-2" x="9.9" y="4.86" width="2.86" height="12.95"/><rect class="cls-2" x="14.18" y="4.86" width="2.87" height="12.95"/></svg>