<?xml version="1.0" encoding="utf-8"?>
<!-- Generator: Adobe Illustrator 19.1.1, SVG Export Plug-In . SVG Version: 6.00 Build 0)  -->
<!DOCTYPE svg PUBLIC "-//W3C//DTD SVG 1.1//EN" "http://www.w3.org/Graphics/SVG/1.1/DTD/svg11.dtd">
<svg version="1.1" id="Ebene_1" xmlns="http://www.w3.org/2000/svg" xmlns:xlink="http://www.w3.org/1999/xlink" x="0px" y="0px"
	 width="612px" height="105.6px" viewBox="256 -17.8 612 105.6" style="enable-background:new 256 -17.8 612 105.6;"
	 xml:space="preserve">
<path style="fill:#EC6602;" d="M868,55.9c-63.6-20.4-172.4-34-343,6.7c155.5-45.7,267.2-49,343-39.8V55.9z M543.2,47.8
	C418,73.4,317.9,45.7,256,18.3v33.5c69,16.8,179,30.9,297.2-6.4l0,0C549.9,46.1,546.6,46.9,543.2,47.8z"/>
<path style="fill:#F39100;" d="M868-16.8v50.9c-68.6-13.7-168.3-11.5-333.1,26.6c-14.1,3.3-28.5,6.4-44.4,9.9
	c-83.1,19.8-169,18.9-234.5,14.7V48c71,16.8,195.4,34.3,324.1-11.6C689-0.1,773.4-23.1,868-16.8z"/>
</svg>
