<svg xmlns="http://www.w3.org/2000/svg" viewBox="0 0 306.03 77.97"><defs><style>.a{fill:#fff;}.b{fill:#7f9900;}</style></defs><path class="a" d="M251.48,74.4l-9.14-3.32a5.71,5.71,0,0,0-3.49-1.92,5.83,5.83,0,0,0-4.34,1.73v0l-1.51.31-1.16.22a13.45,13.45,0,0,0-1.35-.26l-.33,0a8.37,8.37,0,0,0-3.78,1.41l-1.47.29v0l-.73.16a9.28,9.28,0,0,0-1-.17,2.84,2.84,0,0,0-.66,0,3.07,3.07,0,0,0-1.65.81L176.23,82.9l.08,2.39h0l0,1,.06,1.88-2,3.14,2.1-.34.12,3.58h0v0l.21,4.8h0l-.22,5.52,75.44-2.64Z" transform="translate(-68.97 -28.9)"/><path class="b" d="M180.26,92.46l16.59-1.54a8,8,0,0,1,2.46-.69c.76-.09,2.37.19,2.82-.15,1.69-1.27,2.32-1.33,4.41-1.18.86.06,2.21,1.34,5.09.21a6.92,6.92,0,0,1,2.47-.88c.76-.08,2.37.23,2.83-.1a11.84,11.84,0,0,1,1.13-.74l0-1L180.2,90.71Z" transform="translate(-68.97 -28.9)"/><path class="b" d="M222.18,77.77l-3.94.74,0,2a6.64,6.64,0,0,1,3.26-1.66,3,3,0,0,1,.66,0Z" transform="translate(-68.97 -28.9)"/><path class="b" d="M222.23,80.41,218.3,81l0,1.33a2.63,2.63,0,0,0,1.3,0,10.8,10.8,0,0,1,2.61-1.19Z" transform="translate(-68.97 -28.9)"/><path class="b" d="M222.27,83.06l-3.91.53,0,.89a17.53,17.53,0,0,0,3.93.29Z" transform="translate(-68.97 -28.9)"/><path class="b" d="M218.45,87.21a4.7,4.7,0,0,1,2.9-.14c.17,0,.53.14,1,.28l0-1.39-3.89.44Z" transform="translate(-68.97 -28.9)"/><path class="b" d="M227.11,76.44l0-1.39-2.27.48a7.77,7.77,0,0,0-1.32-.21,1.6,1.6,0,0,0-.87.64L180,84.75l0,.55,42.36-8Z" transform="translate(-68.97 -28.9)"/><path class="b" d="M227.12,76.84l-4.55.86,0,1.22a3.65,3.65,0,0,0,1.64.08,10.77,10.77,0,0,1,2.9-1.27Z" transform="translate(-68.97 -28.9)"/><path class="b" d="M227.2,79.62l-4.58.73,0,.72a9.14,9.14,0,0,1,2.05-.22c.86,0,1.44.65,2.24.57.1,0,.2-.11.32-.18Z" transform="translate(-68.97 -28.9)"/><path class="b" d="M227.28,82.37l-1.11.15-3.5.48,0,1.62a4.51,4.51,0,0,1,2.24-.78,16.12,16.12,0,0,1,2.4.57Z" transform="translate(-68.97 -28.9)"/><path class="b" d="M222.75,87.46c1.27.37,3.07.79,4.13.41.3-.12.46-.2.56-.25l-.07-2.23-4.65.52Z" transform="translate(-68.97 -28.9)"/><path class="b" d="M232.93,75.35h0l0-1.5-.71.14a9.14,9.14,0,0,0-1.58-.33,8.55,8.55,0,0,0-3,1.27l-.21,0,0,1.4,5.42-1Z" transform="translate(-68.97 -28.9)"/><path class="b" d="M229.32,77.56a15.21,15.21,0,0,0,3.69.54l0-2.35-5.45,1,0,.88A7.8,7.8,0,0,1,229.32,77.56Z" transform="translate(-68.97 -28.9)"/><path class="b" d="M231.52,79.59c.36.11.94.31,1.55.47l0-1.38-5.44.87,0,1.45C228.73,80.33,230.45,79.26,231.52,79.59Z" transform="translate(-68.97 -28.9)"/><path class="b" d="M232.24,82.7c.27.11.57.27.91.42l0-1.54-5.43.74.06,2C228.46,84,230.85,82.16,232.24,82.7Z" transform="translate(-68.97 -28.9)"/><path class="b" d="M230.41,87.75l.93,0,1.92-.17-.07-2.81-5.43.62.07,2.18h0C228.16,87.54,230.27,87.76,230.41,87.75Z" transform="translate(-68.97 -28.9)"/><path class="b" d="M207.77,87.2l.1-.08a4,4,0,0,1,2.67-1.48c.75-.09,2.36.21,2.82-.12,1.71-1.25,2.33-1.29,4.42-1.12l.2,0,0-.77-37.82,5.19.05,1.47Z" transform="translate(-68.97 -28.9)"/><rect class="b" x="180.13" y="88.84" width="0.01" transform="translate(-85.49 19.08) rotate(-14.52)"/><path class="b" d="M180.12,88.45l33.59-4.62c.54-.1,1.87-1.37,3.23-1.57a4.5,4.5,0,0,1,1,0l0-1.21-37.82,6.05,0,1.3Z" transform="translate(-68.97 -28.9)"/><polygon class="b" points="148.88 49.68 111.05 56.78 111.09 57.85 148.92 51.8 148.88 49.68"/><path class="b" d="M250,102.74l-.34-26.47-8.19-3,0,0c-2.62-3.06-4.55-.89-5.57-.07l-.16.07c-.1,0-1.4.31-2.37.51l0,1.49,6-1.12,0,.19v.2l-6,1.13.06,2.39a7.53,7.53,0,0,0,1.4-.25l1.89-1a4,4,0,0,1,2.71-.9,3.3,3.3,0,0,1,1.56.76,18.51,18.51,0,0,1,2.72,2.45l-4-1.51-.18,0h0l-6.05,1,.05,1.55a2.59,2.59,0,0,0,2-.12l.14-.09h0l.47-.32a4.83,4.83,0,0,1,3.41-.78,3.48,3.48,0,0,1,1.14.48c2.52,1.68,3,2.65,3,2.65l-4.1-1.3h0l-4.74.66h-.1l-1.23.18.05,1.74a3.06,3.06,0,0,0,2.2-.07l.43-.29a5,5,0,0,1,3.44-.74,3.37,3.37,0,0,1,1.11.45c2.52,1.58,3,2.52,3,2.52l-4-1.12h0v0l-6.11.69.08,2.81,3.47-.33a7.57,7.57,0,0,0,1.91-.5c.21-.11.46-.25.73-.36a2,2,0,0,1,1.09-.17,16.69,16.69,0,0,1,2.86,2l-3.87-.85,0,0h0l-59.52,5.54.05,1.39-.2,10.94Zm-69.59-8.15,59.56-3.93,0,.4L180.38,95Zm.08,2.3L240,94.14l0,.39-59.6,2.76Z" transform="translate(-68.97 -28.9)"/><path class="a" d="M251.14,82.17a2,2,0,0,1,.2-.82l-.08-4.57a2.24,2.24,0,0,1-.15-.71c0-.5,0-.53,2-6.34l1.69-4.8,1.86,4.73c1.58,4,2.08,5.26,2.23,5.8l.61-.87.67.9c.14-.55.58-1.81,2-5.81l1.69-4.79,1.87,4.72c2.31,5.83,2.31,5.84,2.31,6.31a2.43,2.43,0,0,1-.13.71l.08,4.58a1.82,1.82,0,0,1,.22.79l1.6,16.89-18.73.48S251.12,82.43,251.14,82.17Z" transform="translate(-68.97 -28.9)"/><path class="b" d="M253,97.25s0-14.72,0-14.88a1.74,1.74,0,0,0,0-.18c0-.06.2-.18.2-.18l-.09-5.78A.37.37,0,0,1,253,76c0-.12,1.93-5.63,1.93-5.63s2.17,5.49,2.17,5.62a.37.37,0,0,1-.13.23l.09,5.23,2.52-3.61,2.69,3.58-.09-5.22A.46.46,0,0,1,262,76c0-.13,1.94-5.64,1.94-5.64s2.18,5.49,2.18,5.61a.37.37,0,0,1-.14.24l.1,5.78s.22.12.22.18a1,1,0,0,0,0,.18c0,.15,0,15,0,15Zm5.67-16.18,0,1.38h.38l0-1.9c-.23,0-.33.11-.33.25v.26Zm-.08,1.39,0-1.39h0v-.22a.3.3,0,0,0-.35.32l0,1.29Zm1.59-1.84c0-.14-.07-.22-.17-.22s-.17.08-.17.22v.26h0l0,1.56h.38Zm-.44,1.83,0-1.57h0v-.26c0-.14-.08-.22-.18-.22s-.17.08-.16.22l0,1.84Zm3.84-2.19,0,1.29h1l0-1.3s0,0,0,0a.48.48,0,1,0-1,0v0m-.05-2.8,0,1.3h1l0-1.29v0a.52.52,0,0,0-.5-.51.49.49,0,0,0-.46.52.06.06,0,0,1,0,0m-8.93,2.85,0,1.3h1l0-1.29a.09.09,0,0,1,0,0,.51.51,0,0,0-.49-.51.5.5,0,0,0-.48.52v0m0-2.8,0,1.3h1l0-1.3v0a.51.51,0,0,0-.5-.51.49.49,0,0,0-.47.52v0m5.93,3,0,1.9h.86l0-1.29a.28.28,0,0,0-.35-.3v.2h0l0,1.38h-.1l0-1.38h0V80.8a.27.27,0,0,0-.33-.25" transform="translate(-68.97 -28.9)"/><path class="a" d="M267,92l-1.13-11.7-.51-3.38.81-.68.8-.66a4.88,4.88,0,0,1-.12-.55,4.21,4.21,0,0,1,.78-3.11,4.14,4.14,0,0,1,2.76-1.64,4.3,4.3,0,0,1,.61,0,3.82,3.82,0,0,1,.68.06,4.88,4.88,0,0,1-.46-1.52,5.23,5.23,0,0,1,4.41-5.92,4.73,4.73,0,0,1,.75,0,5.23,5.23,0,0,1,4.3,2.27,4.32,4.32,0,0,1,1.65-.61,5.6,5.6,0,0,1,.69-.05,4.15,4.15,0,0,1,2.77,1,2.89,2.89,0,0,1,2-1.19l.14,0h.29a2.94,2.94,0,0,1,2.33,4.74l1.18,8.47a5,5,0,0,1,.45,1.58c0,.33.26,1.48.42,2.28a21.28,21.28,0,0,1,1.35,3.67c0,.07,2.27,11,2.27,11l-28.4,3Z" transform="translate(-68.97 -28.9)"/><path class="b" d="M269.35,93.82l-1.62-13.74-.36-2.42s1.17-1,2-1.61a2.29,2.29,0,1,1,3.83-2v.08l3-1.13.09-1.71a3.34,3.34,0,1,1,2.05-.7,1.81,1.81,0,0,1-.87.51l.63,1.55,4.33-.89-.14-1a2.29,2.29,0,0,1,.25-4.49A2.1,2.1,0,0,1,285.15,68a2.64,2.64,0,0,1-1.2,2.57h.1l.17,1.21,2-.15-.15-1,.79-.12,1.34-.64-.17-1.68-.06,0a1,1,0,0,1,0-2.07,1,1,0,0,1,.46,2h0L289.82,78a3.46,3.46,0,0,1,.4,1.21c.07.61.48,2.62.48,2.62S292,85,292,85.2s.73,10.11.73,10.11Z" transform="translate(-68.97 -28.9)"/><polygon class="a" points="285.8 60.43 284.26 58.34 284.32 58.2 279.06 55.15 274.14 53.49 274.25 50.27 275.02 48.65 275.42 41.68 269.54 35.78 269.54 35.78 260.47 26.83 240.08 30.22 225.31 39.36 227.52 42.48 227.45 43.93 223.74 45.22 225.62 47.66 224.88 69.25 229.86 69.71 229.13 70.38 253.67 72.85 253.03 71.91 259.88 72.68 259.87 72.95 260.49 72.94 260.49 72.96 261.99 72.92 264.02 73.14 264.04 72.86 268.04 72.76 268.03 73.02 285.39 72.64 285.8 60.43"/><polygon class="a" points="270.17 76.68 271.8 44.28 272.38 26.74 272.45 22.86 272.46 19.32 279.86 1.01 286.19 19.04 285.97 29.58 289.06 23.93 292.5 30.76 292.5 19.53 299.71 0 306.03 20.28 306.02 77.22 270.17 76.68"/><path class="b" d="M373.57,106.67l-.44-.24-.33-.71.2-7.84.23-.3-.3-.35.1-7.4.05-4.42.3-.31-.28-.35,0-2.37.25-.41-.33-.09-.1-.35v.34l-.29.15.14.35-.06,1.53h-.3l.15-12.58.34-.39,0-.19-.48-.31,0-1.63.06-5.29,0-3.71.52.2.35-.15.1-.34-.4-.05-.33-.21,0-1.73-.18-.35.14-.2-.23-.25-.15.24.05.21-.06.34v.9l-.16-.11,0-3.56.07-5.08,1.08,0v-.42l-.72-.07,0-2.26-.16-.54-.23.5v1.22h-.78l0-.56.33-.09v-.3l-.43-.06v-.95l-.59-.05-.05-.17-.17-.57.43-.05,0-.39h-.53l-.23-.66h.44v-.34h-.59l-.18-.76h.34l0-.43h-.53l-.14-.8h.43v-.29h-.62l-.14-.71.25-.14v-.4H369l-.05-.69h.45v-.35h-.85V38.21l.34-.33-.29-.31v-1h.58v-.49l-.57,0v-.39h-.64v.4h-.57v.51h.57v.94l-.3.3.32.34v1.14h-.85v.35h.44l-.06.69H367v.4l.25.15-.16.69h-.62v.29h.42l-.15.8h-.53l-.05.44h.33l-.19.75h-.59v.34h.44l-.26.65h-.52l-.05.39.42.06-.16.48-.08.26-.58,0,0,.94-.42,0v.3l.32.11-.05.55h-.78V46.84l-.21-.5-.16.52,0,2.28-.72,0v.42h1.09l-.06,4.94-.05,3.7-.16.11v-.9l0-.35.05-.2-.14-.26-.23.26.13.19-.19.35,0,1.74-.35.2-.38,0,.09.34.33.15.53-.2,0,3.58-.07,5.43,0,1.62-1-1.93v-.87l-.24,0v.31L361.7,67v-.52h-.14v.17l-.39-.62.07-.71-.44,0-.26-.7.08-.53-.27,0,0,.21-.27-.49.07-.55v-.11h-.35v.27l-.07-.18-.26-.65.05-.63h-.21v.31l-.4-.7v-.77l-.14,0v.35l-.5-.74,0-1.32h.47v-.35h-.47v-.39h.27V58h-1.08v.28h.27v.38h-.48V59h.47v1.31l-.52.74v-.35l-.13,0v.76l-.41.7v-.32h-.2l0,.63-.25.6-.09.23v-.28h-.35v0l.06.62-.28.49,0-.21-.27,0,.06.52-.28.7-.44,0,.06.7-.41.62v-.18h-.14v.52l-.42.94v-.31l-.23,0,0,.87-.95,1.92,0-1.63.07-5.59,0-3.41.51.21.35-.15.1-.34-.39-.05-.34-.2,0-1.74-.18-.36.14-.19-.22-.26-.15.25,0,.2-.05.36v.88l-.17-.09.05-3.89.05-4.77,1.09,0V49.1l-.72-.06,0-2.27-.16-.52-.22.48,0,1.23h-.77l0-.56.34-.1V47l-.42,0V46l-.58,0-.15-.49-.07-.25.43-.05-.06-.39h-.51l-.24-.66h.43v-.35h-.58l-.19-.76h.34l0-.45h-.53l-.13-.82h.43v-.29h-.62l-.14-.71.25-.13v-.41h-.49l0-.7h.44v-.35h-.85V38l.34-.32-.29-.32,0-1.84h-.65l0,1.85-.3.3.32.34v1.15h-.86v.35h.44l-.05.69-.49,0v.41l.24.14-.15.7h-.62v.29h.42l-.15.81h-.53l-.05.44h.35l-.21.75h-.58v.34h.44l-.25.65h-.52l-.06.39.42.06-.05.16-.18.57-.59.05v.94l-.43,0v.3l.33.1-.06.56h-.78l0-1.23-.21-.49-.18.52,0,2.28-.71,0v.42h1.08l-.06,4.64,0,4-.17.1v-.89l0-.36,0-.19-.14-.26-.23.25.13.2-.19.35,0,1.74-.34.2-.39,0,.09.34.34.15.53-.2,0,3.25-.07,5.75,0,1.64-.47.3-.05.2.34.39-.15,12.57h-.29l0-1.53.14-.35-.28-.15v-.34l-.1.34-.34.09.24.41,0,1.75L350.79,87l2.58,2.73-.44-.16-.39-.14-.14,9.07-.17,0v.62h-.36l.17-9.78-9.54-2.78,0,2.58L342.37,97l-.3.35.22.3,0,7.84-.34.71-.45.23,32.09.48ZM346.16,51.8l0,2.31,0,3h-1.24l0-3,0-2.29V51.7a2.33,2.33,0,0,1,.64-1.7,2.28,2.28,0,0,1,.61,1.71Zm3,0,0,2.36,0,2.94-1.94,0,0-3,0-2.33v-.08a2.05,2.05,0,0,1,1-1.69,2,2,0,0,1,.95,1.71Zm2.44,0,0,2.39,0,2.9h-1.24l0-2.92,0-2.37v-.09a1,1,0,1,1,1.24,0Zm-8.06,41.86-.42,0,.21-5.28.42,0Zm4.23.17-.42,0,.18-4.53H348Zm2.58.1-.42,0,.15-3.95.42,0Zm5.89-12.92-1.93,0,.09-7.1v-.08a1.13,1.13,0,1,1,1.94,0V74ZM358,68.43a1.18,1.18,0,0,1-1.17-1.22A1.19,1.19,0,0,1,358,66a1.21,1.21,0,0,1,0,2.42ZM361.1,81.1l-1.94,0,.08-7.09V73.9a1.12,1.12,0,1,1,1.93,0V74ZM366,52l0,2.62,0,2.67h-1.25l0-2.69,0-2.6v-.09a2.31,2.31,0,0,1,.64-1.7,2.39,2.39,0,0,1,.6,1.72Zm3,2.69,0,2.63H367l0-2.66,0-2.64V51.9a1.13,1.13,0,1,1,1.93,0V52ZM371.43,52l0,2.71,0,2.58h-1.24l0-2.6,0-2.69v-.09a1,1,0,1,1,1.25,0Z" transform="translate(-68.97 -28.9)"/><polygon class="b" points="277.61 56.88 271.99 54.98 271.92 56.69 282.57 59.75 277.61 56.88"/><polygon class="b" points="262.02 70.3 262.42 60.17 261.88 70.32 262.23 70.31 262.02 70.3"/><polygon class="b" points="265.02 34.55 265.02 34.55 265.02 34.55 265.02 34.55"/><polygon class="b" points="227.96 40.12 227.96 40.12 227.96 40.12 227.96 40.12"/><path class="b" d="M332.56,73.13l-35.19,3.08,0-.22h0l-.68,19.85,7.46.69-.74.68,15.18,1.53-.65-1,12.93,1.45.54-10.14L332,74.19Zm-16.35,3L316,81.28l-7.44.51.15-5Zm-2.69,19.41-3.44-.3-1.64-.15h-.21l.47-9.4,7-.22-.4,10.24h-.21Z" transform="translate(-68.97 -28.9)"/><polyline class="b" points="241.11 66.43 241.11 66.32 241.48 58.7 244.96 58.53 244.55 66.63 244.54 66.85"/><line class="b" x1="241.68" y1="47.77" x2="241.51" y2="52.22"/><line class="b" x1="243.09" y1="52.14" x2="243.26" y2="47.83"/><polyline class="b" points="245.1 52.22 245.29 47.55 245.29 47.4"/><polyline class="b" points="250.71 41.93 250.82 39.06 252.26 38.97"/><line class="b" x1="265.36" y1="38.63" x2="265.26" y2="41.07"/><line class="b" x1="267.45" y1="40.29" x2="267.37" y2="42.3"/><line class="b" x1="269.69" y1="41.68" x2="269.61" y2="43.83"/><polygon class="b" points="265.02 34.55 265.02 34.55 265.02 34.55 265.02 34.55"/><polygon class="b" points="227.96 40.12 227.96 40.12 227.96 40.12 227.96 40.12"/><polygon class="b" points="264.82 34.37 259.67 29.56 241.12 32.65 228.46 39.83 264.82 34.37"/><polygon class="b" points="265.02 34.55 265.02 34.55 265.01 34.56 265.02 34.55"/><path class="b" d="M332.25,72.77" transform="translate(-68.97 -28.9)"/><path class="b" d="M312.23,76.74" transform="translate(-68.97 -28.9)"/><path class="b" d="M313.66,76.94" transform="translate(-68.97 -28.9)"/><path class="b" d="M352.39,89.34l.2.12-.08-.09Z" transform="translate(-68.97 -28.9)"/><path class="b" d="M340.59,82.47l.17-4.63-.41-.25C339.55,79.84,339.76,81.35,340.59,82.47Z" transform="translate(-68.97 -28.9)"/><path class="b" d="M333.53,63.74,297.2,69.2l1.42.93L298.46,74l34-3.77v-5Zm-30.61,9.12-1.81.22.11-2.77L303,70.1Zm4.51-.53-1.8.22.1-2.76,1.81-.22Zm5-.62-1.81.22.11-2.77,1.81-.21Zm5.42-.69-1.81.22.11-2.77,1.8-.22Zm5-.61-1.81.22.11-2.77,1.81-.21Zm5.57-.6-1.81.22.11-2.78,1.8-.2Z" transform="translate(-68.97 -28.9)"/><polygon class="b" points="272.84 42.69 270.98 40.83 270.76 45.88 272.66 47.13 272.84 42.69"/><polygon class="b" points="272.66 47.13 272.67 46.99 269.39 44.99 272.66 47.13"/><polygon class="b" points="265.05 34.88 263.93 36.47 263.93 41.42 269.39 44.99 272.67 46.99 272.84 42.69 265.05 34.88"/><polygon class="b" points="272.55 47.75 272.63 47.61 263.97 41.96 264.16 43.85 271.95 48.53 272.55 47.75"/><polygon class="b" points="263.73 43.79 263.52 41.77 227.2 45.79 228.45 46.87 263.73 43.79"/><polygon class="b" points="239.95 52.4 241.29 52.33 241.46 48.14 240.13 48.26 239.95 52.4"/><polygon class="b" points="243.15 52.2 243.31 47.99 243.31 47.98 241.89 48.1 241.72 52.29 243.15 52.2"/><polygon class="b" points="244.81 52.09 244.97 47.83 243.68 47.96 243.51 52.19 244.81 52.09"/><polygon class="b" points="246.6 51.96 246.77 47.67 245.4 47.8 245.23 52.05 246.6 51.96"/><polygon class="b" points="240.14 57.17 239.69 66.17 239.48 66.16 239.47 66.17 239.47 66.18 240.9 66.3 241.28 58.44 245.18 58.31 244.77 66.64 244.55 66.63 245.92 66.75 246.3 56.97 240.14 57.17"/><polygon class="b" points="241.32 66.34 244.34 66.61 244.74 58.75 241.68 58.85 241.32 66.34"/><polygon class="b" points="271.92 54.73 271.92 54.73 271.92 54.73 271.92 54.73"/><polygon class="b" points="281.61 58.37 277.87 57.03 277.61 56.88 274.55 55.84 273.53 55.48 273.53 55.5 271.91 54.95 271.85 56.88 271.91 56.68 282.44 59.92 283.26 60.18 283.26 60.17 283.28 60.18 281.61 58.37"/><path class="a" d="M140.45,79.87l-3.95-3v-.1h-.14l-5.82-4.42h-9.73l-.3-.6v-.36a1.73,1.73,0,0,0,.18-.36,2,2,0,0,0-.12-1.79l-.24-.4a2.91,2.91,0,0,0-.07-.33,2.35,2.35,0,0,0-.65-1,2.1,2.1,0,0,0-.16-.62c0-.24,0-.49,0-.6a2,2,0,0,0-1.78-1.72l-.19,0h-.13a2,2,0,0,0-1.92,1.85c0,.07,0,.28,0,.5a2.34,2.34,0,0,0-.15.61,2.3,2.3,0,0,0-.65,1,1.38,1.38,0,0,0-.06.28l-.27.47a2.1,2.1,0,0,0-.07,1.84,2,2,0,0,0,.15.29v.37l-.3.58H104.3l-5.42,4.28L96,79.76h2.71L98,100.62l37.72.1.69-20.86Z" transform="translate(-68.97 -28.9)"/><path class="b" d="M117.15,76.41A5.87,5.87,0,0,1,121,78l14.1,0-5.14-3.9H119.44v-.51l-.19-.36H119a2.39,2.39,0,0,1,0-.28c0-.11-.26-.29-.26-.29V70.79a3.86,3.86,0,0,0,.3-.39c0-.06.08-.26,0-.27l-.23,0-.12-.29a7.65,7.65,0,0,0-.1-.76c-.12-.39-.72-.46-.77-.47l-.08-.68a.22.22,0,0,0,.13-.22c0-.14-.06-.16-.15-.2s0-.86,0-1-.16-.12-.21-.11a.28.28,0,0,0-.21.1c0,.17,0,1,0,1s-.15.07-.15.21a.22.22,0,0,0,.13.22l-.09.68s-.64.08-.76.47a7.65,7.65,0,0,0-.1.76l-.11.29-.24,0c-.1,0,0,.22,0,.28a4,4,0,0,0,.29.39v1.92s-.25.18-.25.29v.28h-.29l-.18.37v.5H104.93L100.12,78h0l13.33,0A5.28,5.28,0,0,1,117.15,76.41Z" transform="translate(-68.97 -28.9)"/><path class="b" d="M134.66,98l0-19.4-13.66,0,0,6.65h-.56l0-6.61a4.87,4.87,0,0,0-3-1.46,3.93,3.93,0,0,0-3.55,1.44l0,6.61h-.53l0-6.57-12.75,0,0,19.32Z" transform="translate(-68.97 -28.9)"/><path class="a" d="M161.42,82.93l1-2.18-4.32-2.58V77l-.31-.17a2.17,2.17,0,0,0-2.21-2,2.36,2.36,0,0,0-1,.23l-4.34-2.34a2.23,2.23,0,0,0-4.44-.11l-3.2,1.34a2.35,2.35,0,0,0-1.25-.36,2.18,2.18,0,0,0-2.17,1.79l-.42.17v1.32L132.88,79,135,81.46v23.86h15.5v-.15l12.45.64-.37-7.45V91.83l-.44-4.32Z" transform="translate(-68.97 -28.9)"/><path class="b" d="M160.18,81.38l-.65,1h0l-10.9-5.58-11.7,4-.78-.9,4.55-1.65V76.78l.38-.16v-.86a.32.32,0,0,1,.64,0v.6l6-2.52v-1.1c0-.38.66-.38.66,0v1.09l6.93,3.75V77c0-.38.65-.37.65,0v1l.3.16v1.24Z" transform="translate(-68.97 -28.9)"/><polygon class="b" points="90.55 54.05 90.59 59.89 90.59 59.89 90.57 66.39 79.65 64.33 79.65 48.48 90.55 54.05"/><polygon class="b" points="90.57 66.96 90.56 69.46 79.66 68.06 79.65 68.06 79.65 64.9 90.57 66.96"/><polygon class="b" points="79.65 64.92 79.65 68.08 67.94 69.3 67.94 66.72 79.65 64.92"/><path class="b" d="M136.91,81.35v5.94h0V95l11.71-1.8V77.38Zm10.15,7-.77.26V86.87l.77-.29Zm0-3-.77.27V83.89l.77-.29Zm0-3.16-.77.26V80.72l.77-.28Z" transform="translate(-68.97 -28.9)"/><line class="b" x1="67.94" y1="69.68" x2="67.88" y2="69.68"/><line class="b" x1="67.94" y1="67.1" x2="67.88" y2="67.11"/><path class="b" d="M136.91,98.58v4.84h11.71V97.37Zm2.29,3.69h-1.62v-2s.09-.85.81-.81.81.81.81.81Zm2.67,0h-1.66v-2.14s.09-.88.83-.83.83.83.83.83Zm2.88,0h-1.69V100s.1-.89.85-.84.84.84.84.84Zm3,0H146V99.63s.1-.91.86-.86.87.86.87.86Z" transform="translate(-68.97 -28.9)"/><path class="b" d="M148.63,97.37h0v5.88l10.9.18V98.76Zm2.33,4.89h-1.3V99.64s0-.69.65-.68a.66.66,0,0,1,.66.68Zm2.57,0h-1.29V100s0-.67.65-.67.64.67.64.67Zm2.7,0H155v-2s0-.66.62-.66.62.66.62.66Zm2.52,0h-1.23v-1.82s0-.64.61-.64.62.64.62.64Z" transform="translate(-68.97 -28.9)"/><path class="a" d="M161.34,60.86h.71c0-.59,0-1.12,0-1.33a4.19,4.19,0,0,1,1.46-2.94l2.76-12.29,2.93,12.28a4.18,4.18,0,0,1,1.46,3c0,.18,0,.72,0,1.31h.7l0,2.7.25-.26.2.21V60.87h.69c0-.6,0-1.14,0-1.35a4.17,4.17,0,0,1,1.49-3l2.82-12.36,2.86,12.39a4.2,4.2,0,0,1,1.44,3c0,.17,0,.7,0,1.29h.68l-.06,44.52-20.49,0Z" transform="translate(-68.97 -28.9)"/><path class="b" d="M180.43,102.31l-.49-39.55h-.7s0-2.68,0-3.1a2.44,2.44,0,0,0-1.32-2l-1-7.45-1.19,7.45a2.48,2.48,0,0,0-1.34,2c0,.42,0,3.1,0,3.1h-.7l0,5.56-2.09-2.25-2.15,2.25,0-5.56h-.7s0-2.68,0-3.09a2.44,2.44,0,0,0-1.31-2l-1.14-7.45-1,7.45a2.51,2.51,0,0,0-1.34,2c0,.41,0,3.09,0,3.09h-.71l0,38.92Zm-10.56-29a.9.9,0,0,1,.45.78l0,4.14h-.9l0-4.14a.9.9,0,0,1,.44-.78m3.24,0a.91.91,0,0,1,.44.78l0,4.14h-.9l0-4.14a.94.94,0,0,1,.45-.78m-1.63,0a.92.92,0,0,1,.44.78l0,4.14H171l0-4.14a.94.94,0,0,1,.46-.78m2-2.92v1.4h-.75V70.36Zm-1.63,0,0,1.41h-.76v-1.4Zm-1.58,0v1.4h-.77V70.36Zm-4.87-9.74a.94.94,0,0,1,.91-1,.93.93,0,0,1,.9,1l0,2.15h-1.8V60.63m10.34.2a1.13,1.13,0,0,1,1.09-1.16,1.12,1.12,0,0,1,1.07,1.16,1.08,1.08,0,1,1-2.16,0" transform="translate(-68.97 -28.9)"/><polygon class="a" points="0 73.83 0.09 28.86 14.36 22.17 30.41 28.74 31.23 71.7 0 73.83"/><polygon class="b" points="19.75 38.98 18.63 38.57 18.64 43.41 19.76 43.81 19.75 38.98"/><polygon class="b" points="18.28 38.45 17.16 38.05 17.17 42.88 18.29 43.28 18.28 38.45"/><polygon class="b" points="16.81 37.92 15.74 37.54 15.75 42.37 16.82 42.75 16.81 37.92"/><polygon class="b" points="25.62 41.08 24.51 40.68 24.52 45.52 25.63 45.92 25.62 41.08"/><polygon class="b" points="20.1 39.1 20.11 43.93 21.22 44.34 21.21 39.5 20.1 39.1"/><polygon class="b" points="23.04 40.15 23.05 44.99 24.16 45.4 24.16 40.55 23.04 40.15"/><polygon class="b" points="21.57 39.63 21.58 44.46 22.7 44.87 22.68 40.02 21.57 39.63"/><polygon class="b" points="19.72 28.23 18.61 27.84 18.62 31.2 19.73 31.59 19.72 28.23"/><polygon class="b" points="18.26 27.71 17.26 27.36 17.25 30.71 17.39 30.77 18.26 31.08 18.26 27.71"/><polygon class="b" points="21.19 28.76 20.08 28.36 20.08 31.72 20.41 31.83 21.2 32.11 21.19 28.76"/><polygon class="b" points="25.6 30.34 24.49 29.93 24.49 33.27 25.02 33.45 25.61 33.66 25.6 30.34"/><polygon class="b" points="27.1 30.86 25.95 30.46 25.96 33.78 26.32 33.91 27.11 34.19 27.1 30.86"/><polygon class="b" points="24.13 29.81 23.02 29.41 23.02 32.75 23.82 33.03 24.14 33.14 24.13 29.81"/><polygon class="b" points="22.66 29.29 21.55 28.89 21.55 32.23 21.77 32.31 22.67 32.63 22.66 29.29"/><polygon class="b" points="17.17 44.13 17.2 56.19 18.32 56.58 18.3 51.32 18.3 51.32 18.29 44.52 17.17 44.13"/><polygon class="b" points="17.24 30.92 15.68 30.37 15.68 31.24 28.7 35.8 28.7 35.78 28.69 34.95 28.69 34.93 27.1 34.38 27.1 34.37 25.96 33.97 25.96 33.98 25.61 33.85 25.61 33.85 24.49 33.45 24.49 33.46 24.14 33.34 24.14 33.33 23.02 32.94 23.02 32.95 22.67 32.82 22.67 32.81 21.56 32.42 21.56 32.43 21.2 32.3 21.2 32.3 20.09 31.91 20.08 31.92 19.73 31.79 19.73 31.78 18.62 31.39 18.62 31.4 18.26 31.28 18.26 31.26 17.24 30.91 17.24 30.92"/><polygon class="b" points="18.28 37.2 18.27 32.33 17.24 31.97 17.21 36.82 18.28 37.2"/><polygon class="b" points="19.75 37.73 19.73 32.84 18.62 32.45 18.63 37.33 19.75 37.73"/><polygon class="b" points="20.1 37.86 21.21 38.26 21.2 33.35 20.83 33.23 20.09 32.97 20.1 37.86"/><polygon class="b" points="24.5 39.45 25.62 39.85 25.61 34.89 25.24 34.76 24.5 34.5 24.5 39.45"/><polygon class="b" points="23.04 38.92 24.15 39.32 24.14 34.38 23.6 34.19 23.02 33.99 23.04 38.92"/><polygon class="b" points="21.57 38.39 22.68 38.79 22.67 33.87 21.71 33.53 21.56 33.48 21.57 38.39"/><polygon class="b" points="27.12 40.39 27.1 35.41 25.96 35.02 25.97 39.98 27.12 40.39"/><polygon class="b" points="25.98 41.2 25.98 46.05 27.13 46.46 27.12 41.61 25.98 41.2"/><polygon class="b" points="28.71 42.18 27.47 41.74 27.48 46.59 28.72 47.03 28.71 42.18"/><polygon class="b" points="28.72 48.06 28.72 47.22 27.48 46.78 25.64 46.11 24.6 45.74 19.26 43.82 18.64 43.59 18.29 43.47 17.17 43.07 16.82 42.94 15.78 42.56 15.78 43.44 16.82 43.81 17.17 43.94 18.01 44.24 19.68 44.84 19.76 44.86 22.09 45.69 22.7 45.91 23.05 46.04 24.16 46.44 24.52 46.56 25.64 46.96 25.99 47.09 27.13 47.5 27.13 47.5 27.48 47.62 27.48 47.62 28.72 48.06"/><polygon class="b" points="28.7 40.96 28.7 35.98 27.46 35.54 27.47 40.51 28.7 40.96"/><polygon class="b" points="28.71 41.15 28.71 41.14 27.47 40.7 27.12 40.57 25.97 40.16 25.97 40.16 25.62 40.04 24.5 39.63 22.68 38.98 21.57 38.58 19.75 37.92 18.63 37.52 18.28 37.39 17.67 37.18 15.79 36.5 15.8 37.38 16.81 37.74 17.16 37.86 18.28 38.26 18.63 38.39 18.86 38.47 20.1 38.91 20.55 39.07 21.57 39.44 22.69 39.84 23.04 39.97 24.16 40.36 24.53 40.5 25.62 40.89 25.98 41.01 27.12 41.42 28.72 41.99 28.71 41.15"/><path class="b" d="M98.06,98.93,97.73,95l0-17.86-1.23-.44,0,18.45-.35,0,0-18.62L95,76.18l0,19.17-.35,0,0-19.34-1.12-.4,0,19.88-.35,0,0-20L92,75.13l0,20.58-.35,0,0-20.75-1.12-.4,0,21.29-.36,0,0-21.45-1.12-.4,0,22-.36,0,0-15.4-1.11-.37,0,15.91-1.82.22,0-23.57-1.07-.38,0,24.09-.36,0-.08-41.21h0v-.13l2.48.9.41.15.87.32.59.21,1.83.67.56.2,1.62.59.4.14,1,.35.52.19,1.85.67v3.52l1.23.45V59.21l-1-.37-.22-.09h0l-.36-.12v0L83.43,53.74v43l-.38,0-.08-43L71.2,59.23l0,41.28ZM76.18,72,75,72.39V69.16l1.21-.44Zm1.38-5.87-1.2.44V63.29l1.21-.44Zm2.82,9.8-1.2.43V73.08l1.21-.44Zm.16-19.31,1.2-.45v3.25l-1.21.43ZM81.78,70l-1.21.44V67.15l1.2-.45Z" transform="translate(-68.97 -28.9)"/><path class="b" d="M340.89,86,340.42,99H340l.77-21.12L333,73.18l-.62,1.13-1,24.9,7.36-.2v.29l13.09-.23.17-9.84Zm-2.62-6.3,1.28.63-.19.38-.69-.34-.24,5.9H338Zm-3.93,6.5L333.07,86l.08-.41,1.27.26Zm.45-7.17-.69-.34-.24,5.9h-.42l.26-6.56,1.28.64Zm2,7.86-1.27-.26.08-.41,1.27.26Zm.38-6.87-.7-.35-.24,5.9h-.42l.26-6.56,1.28.64Zm.79,6.76,1.27.26-.08.42-1.28-.27Zm5.59,6.9-.42,0,.21-5.28.42,0Zm4.23.17-.42,0,.18-4.53H348Zm2.58.1-.42,0,.15-3.95.42,0Z" transform="translate(-68.97 -28.9)"/></svg>