<svg id="Logo" xmlns="http://www.w3.org/2000/svg" width="341.532" height="99.875" viewBox="0 0 341.532 99.875">
  <defs>
    <style>
      .cls-1 {
        fill: #f26722;
      }

      .cls-1, .cls-2 {
        fill-rule: evenodd;
      }

      .cls-2 {
        fill: #fff;
      }
    </style>
  </defs>
  <path id="Advocatus" class="cls-1" d="M168.194,60.3q0.467,1.244.738,2.1a4.849,4.849,0,0,1,.272,1.4,1.208,1.208,0,0,1-.815,1.243,9.332,9.332,0,0,1-2.681.388v1.592h14.684V65.426a12.256,12.256,0,0,1-2.156-.35,3.5,3.5,0,0,1-1.476-.835,6.088,6.088,0,0,1-1.2-1.728q-0.564-1.126-1.379-3.107l-9.285-22.682h-2.874L151.8,62.319a7.935,7.935,0,0,1-.738,1.379,3.391,3.391,0,0,1-.913.913,4.256,4.256,0,0,1-1.2.544,10.766,10.766,0,0,1-1.612.311v1.553h10.644V65.465a8.3,8.3,0,0,1-2.622-.311,1.38,1.38,0,0,1-.874-1.476q0-1.592,1.826-5.709H167.3Zm-6.37-16.429h0.155l4.467,11.768H157.2Zm33.523,23.536,7.381-.427V65.465a12.542,12.542,0,0,1-1.34-.058,2.211,2.211,0,0,1-.835-0.233,1.113,1.113,0,0,1-.466-0.486,2.758,2.758,0,0,1-.233-0.816,17.058,17.058,0,0,1-.214-2.389q-0.058-1.573-.058-4.486V34.782l-9.828,1.554v1.321a9.348,9.348,0,0,1,3.049.369,1.7,1.7,0,0,1,1.185,1.185,14.441,14.441,0,0,1,.175,2.156q0.058,1.651.058,3.942v3.3h-0.155a6.3,6.3,0,0,0-2.623-1.981,10.055,10.055,0,0,0-7.341.233,9.178,9.178,0,0,0-3.108,2.272,10.986,10.986,0,0,0-2.059,3.437,11.971,11.971,0,0,0-.757,4.311,11.757,11.757,0,0,0,.738,4.253,9.8,9.8,0,0,0,2.078,3.321,9.413,9.413,0,0,0,3.185,2.175,10.361,10.361,0,0,0,4.06.777,9.073,9.073,0,0,0,6.953-2.874h0.155v2.874Zm-1.2-10.02a17.076,17.076,0,0,1-.252,3.243,6.172,6.172,0,0,1-.8,2.117,5.461,5.461,0,0,1-1.9,1.787,4.891,4.891,0,0,1-2.447.66,3.773,3.773,0,0,1-3.458-2.175,13.02,13.02,0,0,1-1.2-6.214,12.445,12.445,0,0,1,1.2-6.1,3.818,3.818,0,0,1,3.5-2.1,4.862,4.862,0,0,1,2.331.583A4.7,4.7,0,0,1,192.9,50.9a7.392,7.392,0,0,1,.932,2.233,11.447,11.447,0,0,1,.311,2.738v1.515Zm17.17,10.02h3.535l7.264-16.468a6,6,0,0,1,1.574-2.408,3.016,3.016,0,0,1,1.806-.544V46.434h-8.585v1.554a4.146,4.146,0,0,1,2.059.427,1.386,1.386,0,0,1,.582,1.243,3.4,3.4,0,0,1-.155.952q-0.156.524-.427,1.185l-4.157,10.137h-0.155l-3.69-10.176a13.284,13.284,0,0,1-.467-1.321,4.175,4.175,0,0,1-.194-1.165,1.906,1.906,0,0,1,.078-0.563,0.7,0.7,0,0,1,.369-0.408,2.665,2.665,0,0,1,.854-0.233,11.887,11.887,0,0,1,1.535-.078V46.434H201.524v1.554a4.96,4.96,0,0,1,1.146.117,2.033,2.033,0,0,1,.893.485,4.269,4.269,0,0,1,.8,1.049,13.258,13.258,0,0,1,.815,1.806Zm19.811-20.584A11.311,11.311,0,0,0,227.512,49a10.135,10.135,0,0,0-2.447,3.34,9.987,9.987,0,0,0-.894,4.233,10.568,10.568,0,0,0,.894,4.369,10.384,10.384,0,0,0,2.447,3.437,11.21,11.21,0,0,0,3.612,2.233,12.306,12.306,0,0,0,8.76-.019,11.7,11.7,0,0,0,3.652-2.253,10.565,10.565,0,0,0,2.486-3.418,10.275,10.275,0,0,0,.913-4.35,9.707,9.707,0,0,0-.913-4.214,10.316,10.316,0,0,0-2.486-3.321,11.8,11.8,0,0,0-3.652-2.194A12.59,12.59,0,0,0,231.124,46.822ZM237.67,48.9a5.208,5.208,0,0,1,1.69,1.709,9.156,9.156,0,0,1,1.088,2.622,13.656,13.656,0,0,1,.388,3.379,14.3,14.3,0,0,1-.388,3.457,9.109,9.109,0,0,1-1.088,2.66,5.2,5.2,0,0,1-1.69,1.709,4.14,4.14,0,0,1-2.195.6,3.945,3.945,0,0,1-2.156-.6,5.225,5.225,0,0,1-1.631-1.69,8.763,8.763,0,0,1-1.049-2.641,15.1,15.1,0,0,1-.369-3.5,14.49,14.49,0,0,1,.369-3.4,8.787,8.787,0,0,1,1.049-2.622,5.158,5.158,0,0,1,1.651-1.689,3.974,3.974,0,0,1,2.136-.6A4.145,4.145,0,0,1,237.67,48.9Zm28.26,13.419a11.471,11.471,0,0,1-3.03,1.728,8.948,8.948,0,0,1-3.185.6,4.893,4.893,0,0,1-4.293-2.175,10.906,10.906,0,0,1-1.5-6.214A11.548,11.548,0,0,1,255.17,50.4a3.872,3.872,0,0,1,3.5-2.1,3.252,3.252,0,0,1,.854.1,1.9,1.9,0,0,1,.7.388,5.005,5.005,0,0,1,.757.835q0.408,0.544.991,1.476a5.1,5.1,0,0,0,1.34,1.515,2.712,2.712,0,0,0,1.573.466,2.3,2.3,0,0,0,1.729-.66,2.456,2.456,0,0,0,.641-1.787,2.969,2.969,0,0,0-.622-1.806,5.545,5.545,0,0,0-1.689-1.456,9.327,9.327,0,0,0-2.564-.971,14.246,14.246,0,0,0-3.244-.35,12.784,12.784,0,0,0-4.545.777,10.269,10.269,0,0,0-3.535,2.194,9.856,9.856,0,0,0-2.292,3.4,12.259,12.259,0,0,0-.058,8.642,9.231,9.231,0,0,0,2.156,3.282,9.859,9.859,0,0,0,3.341,2.117,11.773,11.773,0,0,0,4.311.757,12.492,12.492,0,0,0,4.759-.893,9.9,9.9,0,0,0,3.671-2.525Zm13.829-2.68a3.99,3.99,0,0,1-.33,1.612,3.879,3.879,0,0,1-.913,1.3,4.486,4.486,0,0,1-1.4.874,4.617,4.617,0,0,1-1.749.33,2.042,2.042,0,0,1-1.553-.66,2.5,2.5,0,0,1-.622-1.787,3.444,3.444,0,0,1,1.651-2.622,26.091,26.091,0,0,1,4.914-2.738v3.69Zm-5.477-3.379a15.815,15.815,0,0,0-5.05,2.932,4.467,4.467,0,0,0-1.515,3.2,4.686,4.686,0,0,0,1.476,3.593,5.515,5.515,0,0,0,3.923,1.379,7.644,7.644,0,0,0,6.993-4.117H280.3a4.575,4.575,0,0,0,.932,3.068,3.386,3.386,0,0,0,2.719,1.087,5.789,5.789,0,0,0,2.584-.563,3.766,3.766,0,0,0,1.689-1.534l-0.582-1.126a2.111,2.111,0,0,1-1.36.5q-1.322,0-1.321-3.3V52.881q0-3.689-1.864-5.263t-6.216-1.573a13.538,13.538,0,0,0-6.157,1.087,3.289,3.289,0,0,0-2.039,2.952,2.722,2.722,0,0,0,.583,1.864,2.107,2.107,0,0,0,1.67.66,2.648,2.648,0,0,0,1.768-.544,3.477,3.477,0,0,0,.99-1.515,5.7,5.7,0,0,1,1.088-2,2.272,2.272,0,0,1,1.709-.6,2.925,2.925,0,0,1,2.467,1.029,5.4,5.4,0,0,1,.8,3.282v1.631Zm16.276-7.69v14.1a4.292,4.292,0,0,0,1.5,3.5,6.349,6.349,0,0,0,4.176,1.243q4.041,0,5.128-2.757l-0.816-1.126a2.481,2.481,0,0,1-2.292,1.4,1.832,1.832,0,0,1-1.767-1.01,7.982,7.982,0,0,1-.525-3.418V48.57h4.468V46.434h-4.468v-4.7h-1.981a8.653,8.653,0,0,1-2.35,3.088,10.223,10.223,0,0,1-3.9,2V48.57h2.836Zm27.153,8.273a11.484,11.484,0,0,1-1.243,5.942,3.9,3.9,0,0,1-3.535,2.1,3.287,3.287,0,0,1-3.108-1.767,12.422,12.422,0,0,1-.971-5.69V46.434h-8.7v1.554a12.264,12.264,0,0,1,1.826.291,1.7,1.7,0,0,1,.991.641,2.833,2.833,0,0,1,.408,1.379q0.076,0.913.077,2.505v5.243a10.6,10.6,0,0,0,1.671,6.408,7.375,7.375,0,0,0,6.332,2.952,9.158,9.158,0,0,0,4.078-.893,6.73,6.73,0,0,0,2.836-2.524h0.156l0.427,3.457,7.73-.466V65.465q-0.971,0-1.573-.058a2.757,2.757,0,0,1-.952-0.233,1.109,1.109,0,0,1-.5-0.466,3.309,3.309,0,0,1-.272-0.8,11.771,11.771,0,0,1-.213-2q-0.058-1.34-.059-3.709V46.434h-8.779v1.554a12.869,12.869,0,0,1,1.845.291,1.755,1.755,0,0,1,1.03.66,2.8,2.8,0,0,1,.427,1.4q0.078,0.913.078,2.466v4.039ZM329.4,65.659a6.147,6.147,0,0,0,2.37,1.3,10.437,10.437,0,0,0,3.108.447,9.255,9.255,0,0,0,2.894-.427,6.707,6.707,0,0,0,2.233-1.2,5.31,5.31,0,0,0,1.438-1.864,6.1,6.1,0,0,0,.175-4.408,5.83,5.83,0,0,0-1.03-1.748,10.067,10.067,0,0,0-1.826-1.651,25.869,25.869,0,0,0-2.68-1.67,13.132,13.132,0,0,1-3.166-2.136,2.918,2.918,0,0,1-.952-2.058,2,2,0,0,1,.641-1.553,2.475,2.475,0,0,1,1.729-.583,3.117,3.117,0,0,1,2.311.971,9.961,9.961,0,0,1,1.845,3.185h1.515V46.4H339l-0.7.932a7.169,7.169,0,0,0-2.078-.971,8.409,8.409,0,0,0-2.389-.349,7,7,0,0,0-2.525.447,5.8,5.8,0,0,0-2,1.262,6.043,6.043,0,0,0-1.32,1.922,5.859,5.859,0,0,0-.486,2.389,5.474,5.474,0,0,0,1.282,3.554,14.091,14.091,0,0,0,4.234,3.165,12.6,12.6,0,0,1,3.147,2.194,3.09,3.09,0,0,1,.971,2.117,1.956,1.956,0,0,1-.8,1.651,3.632,3.632,0,0,1-2.233.6,4.29,4.29,0,0,1-3.224-1.282,8.666,8.666,0,0,1-1.9-4.078h-1.631v7.069h1.2Z" transform="translate(-0.406 -0.063)"/>
  <path class="cls-1" d="M119.268,65a3.9,3.9,0,0,1,2.441-.192,3.39,3.39,0,0,1-1.512,1.836,3.8,3.8,0,0,1-2.435.105A3.384,3.384,0,0,1,119.268,65Zm4.7,1.929a3.641,3.641,0,0,0,2.4.513,3.787,3.787,0,0,0-1.306-2.168,3.544,3.544,0,0,0-2.409-.425A3.8,3.8,0,0,0,123.964,66.93Zm-5.1,2.672a3.92,3.92,0,0,1,2.454.011,3.486,3.486,0,0,1-1.7,1.7,3.814,3.814,0,0,1-2.441-.1A3.49,3.49,0,0,1,118.864,69.6Zm4.487,2.3a3.619,3.619,0,0,0,2.347.71,3.7,3.7,0,0,0-1.083-2.264,3.532,3.532,0,0,0-2.36-.623A3.7,3.7,0,0,0,123.351,71.906Zm-5.265,2.253a3.942,3.942,0,0,1,2.449.213,3.565,3.565,0,0,1-1.866,1.547,3.823,3.823,0,0,1-2.429-.3A3.585,3.585,0,0,1,118.086,74.158Zm4.249,2.66a3.6,3.6,0,0,0,2.272.9,3.617,3.617,0,0,0-.855-2.339,3.5,3.5,0,0,0-2.293-.814A3.608,3.608,0,0,0,122.335,76.818Zm-5.415,1.816a3.856,3.856,0,0,1,2.4.41,2.078,2.078,0,0,1-.514.614,3.133,3.133,0,0,1-1.465.774,3.845,3.845,0,0,1-2.4-.5A3.77,3.77,0,0,1,116.92,78.634Zm4,3a3.576,3.576,0,0,0,2.183,1.085,3.471,3.471,0,0,0-.635-2.4,3.573,3.573,0,0,0-2.242-1.009s0.024,0.358.075,0.811A3.056,3.056,0,0,0,120.915,81.634Zm-5.6,1.343a3.86,3.86,0,0,1,2.358.61,3.01,3.01,0,0,1-2.041,1.238,3.843,3.843,0,0,1-2.351-.7A4.041,4.041,0,0,1,115.319,82.976ZM119.1,86.32a3.56,3.56,0,0,0,2.079,1.26,3.286,3.286,0,0,0-.478-2.459,3.549,3.549,0,0,0-2.143-1.19A4.433,4.433,0,0,0,119.1,86.32Zm-5.731.855a3.865,3.865,0,0,1,2.3.8,3.341,3.341,0,0,1-2.1,1.086,3.832,3.832,0,0,1-2.282-.9s0.246-.218.6-0.467A2.975,2.975,0,0,1,113.365,87.175Zm3.522,3.668a3.55,3.55,0,0,0,1.965,1.427,2.749,2.749,0,0,0,.1-0.851,3.19,3.19,0,0,0-.414-1.663,3.527,3.527,0,0,0-2.029-1.36A3.872,3.872,0,0,0,116.887,90.842Zm-5.815.357a3.873,3.873,0,0,1,2.228,1,3.413,3.413,0,0,1-2.208.9,3.76,3.76,0,0,1-2.18-1.069A3.4,3.4,0,0,1,111.072,91.2Zm3.179,3.935a3.6,3.6,0,0,0,1.854,1.6,3.794,3.794,0,0,0-.095-2.531,3.509,3.509,0,0,0-1.9-1.523A3.808,3.808,0,0,0,114.251,95.134ZM19.409,96.285a3.863,3.863,0,0,1-1.726,1.723,3.432,3.432,0,0,1-.041-2.388,3.748,3.748,0,0,1,1.779-1.652A3.435,3.435,0,0,1,19.409,96.285ZM14.6,97.833a3.587,3.587,0,0,0-2.155,1.156,3.794,3.794,0,0,0,2.394.824,3.5,3.5,0,0,0,2.1-1.228A3.792,3.792,0,0,0,14.6,97.833Zm2.059-5.291a3.88,3.88,0,0,1-1.869,1.576,3.486,3.486,0,0,1,.183-2.4,3.772,3.772,0,0,1,1.916-1.5A3.5,3.5,0,0,1,16.661,92.543Zm-4.9,1.135a3.588,3.588,0,0,0-2.242.974,3.727,3.727,0,0,0,2.295,1.031,3.493,3.493,0,0,0,2.194-1.047A3.722,3.722,0,0,0,11.759,93.677Zm2.472-5.087A3.833,3.833,0,0,1,12.253,90a2.433,2.433,0,0,1-.074-0.8,3.035,3.035,0,0,1,.46-1.574,3.8,3.8,0,0,1,2.041-1.34A3.572,3.572,0,0,1,14.231,88.59Zm-4.962.717a3.578,3.578,0,0,0-2.313.782,3.655,3.655,0,0,0,2.176,1.228,3.56,3.56,0,0,0,2.294-.872S11.167,90.2,10.8,89.923A3.162,3.162,0,0,0,9.269,89.307Zm2.93-4.882a3.834,3.834,0,0,1-2.089,1.237,3.009,3.009,0,0,1,.542-2.312A3.827,3.827,0,0,1,12.8,82.184,4.07,4.07,0,0,1,12.2,84.425Zm-5.05.322a3.579,3.579,0,0,0-2.368.585,3.282,3.282,0,0,0,2.1,1.387,3.568,3.568,0,0,0,2.361-.68A4.4,4.4,0,0,0,7.149,84.747Zm3.378-4.636a3.862,3.862,0,0,1-2.192,1.06,3.172,3.172,0,0,1,.686-2.243,3.852,3.852,0,0,1,2.249-.984s-0.032.332-.093,0.752A2.9,2.9,0,0,1,10.527,80.111Zm-5.115-.083a3.572,3.572,0,0,0-2.4.385,2.369,2.369,0,0,0,.532.673,3.3,3.3,0,0,0,1.5.868,3.559,3.559,0,0,0,2.407-.479A4.09,4.09,0,0,0,5.412,80.028Zm3.809-4.35a3.884,3.884,0,0,1-2.279.875,3.313,3.313,0,0,1,.893-2.183,3.778,3.778,0,0,1,2.3-.788A3.3,3.3,0,0,1,9.22,75.678Zm-5.077-.511a3.655,3.655,0,0,0-2.455.19,3.875,3.875,0,0,0,1.9,1.7,3.55,3.55,0,0,0,2.435-.276A3.9,3.9,0,0,0,4.143,75.167Zm4.141-4.011a3.907,3.907,0,0,1-2.351.683,3.39,3.39,0,0,1,1.107-2.106,3.794,3.794,0,0,1,2.363-.6A3.393,3.393,0,0,1,8.284,71.155ZM3.3,70.22a3.636,3.636,0,0,0-2.457-.015,3.791,3.791,0,0,0,1.719,1.86A3.544,3.544,0,0,0,5,71.992,3.8,3.8,0,0,0,3.3,70.22ZM7.719,66.57a3.929,3.929,0,0,1-2.405.489,3.485,3.485,0,0,1,1.316-2.011,3.818,3.818,0,0,1,2.41-.4A3.491,3.491,0,0,1,7.719,66.57ZM2.856,65.227A3.621,3.621,0,0,0,.414,65.01a3.7,3.7,0,0,0,1.521,1.995,3.528,3.528,0,0,0,2.437.129A3.7,3.7,0,0,0,2.856,65.227Zm4.663-3.278a3.948,3.948,0,0,1-2.444.291A3.578,3.578,0,0,1,6.59,60.346a3.83,3.83,0,0,1,2.442-.2A3.6,3.6,0,0,1,7.518,61.949Zm-4.7-1.734A3.608,3.608,0,0,0,.4,59.8a3.61,3.61,0,0,0,1.313,2.111,3.513,3.513,0,0,0,2.412.327A3.593,3.593,0,0,0,2.815,60.216Zm4.941-2.887a3.864,3.864,0,0,1-2.434.093,3.052,3.052,0,0,1,1.6-1.77,3.859,3.859,0,0,1,2.456,0A4.184,4.184,0,0,1,7.755,57.329ZM3.173,55.215a3.579,3.579,0,0,0-2.361-.61,3.2,3.2,0,0,0,1.166,2.213,3.583,3.583,0,0,0,2.4.525A4.318,4.318,0,0,0,3.173,55.215ZM8.4,52.753a3.881,3.881,0,0,1-2.439-.11A3.3,3.3,0,0,1,7.643,51a3.869,3.869,0,0,1,2.451.2s-0.176.278-.437,0.618A2.949,2.949,0,0,1,8.4,52.753Zm-4.455-2.5a3.559,3.559,0,0,0-2.3-.8,2.62,2.62,0,0,0,.149.843,3.232,3.232,0,0,0,.889,1.472,3.561,3.561,0,0,0,2.344.722A3.907,3.907,0,0,0,3.942,50.254Zm5.465-2.009a3.9,3.9,0,0,1-2.425-.312,3.373,3.373,0,0,1,1.85-1.489,3.784,3.784,0,0,1,2.4.4A3.367,3.367,0,0,1,9.407,48.244Zm-4.2-2.854a3.635,3.635,0,0,0-2.245-1,3.8,3.8,0,0,0,.835,2.4,3.536,3.536,0,0,0,2.27.911A3.818,3.818,0,0,0,5.208,45.391Zm5.578-1.557a3.9,3.9,0,0,1-2.394-.514,3.456,3.456,0,0,1,2-1.321,3.79,3.79,0,0,1,2.363.6A3.457,3.457,0,0,1,10.785,43.834ZM6.868,40.648A3.61,3.61,0,0,0,4.72,39.469a3.731,3.731,0,0,0,.6,2.446,3.521,3.521,0,0,0,2.179,1.1A3.74,3.74,0,0,0,6.868,40.648Zm5.658-1.1a3.91,3.91,0,0,1-2.346-.713A3.528,3.528,0,0,1,12.308,37.7a3.8,3.8,0,0,1,2.307.793A3.537,3.537,0,0,1,12.526,39.547ZM8.914,36.058a3.584,3.584,0,0,0-2.035-1.351,3.67,3.67,0,0,0,.364,2.476,3.5,3.5,0,0,0,2.074,1.271A3.665,3.665,0,0,0,8.914,36.058Zm5.7-.643a3.919,3.919,0,0,1-2.28-.908,3.6,3.6,0,0,1,2.24-.945,3.8,3.8,0,0,1,2.235.983A3.618,3.618,0,0,1,14.618,35.415ZM11.335,31.65a3.564,3.564,0,0,0-1.91-1.512,3.608,3.608,0,0,0,.131,2.482,3.475,3.475,0,0,0,1.955,1.437A3.6,3.6,0,0,0,11.335,31.65Zm5.715-.187a3.823,3.823,0,0,1-2.174-1.078,2.359,2.359,0,0,1,.68-0.436,3.144,3.144,0,0,1,1.627-.323,3.794,3.794,0,0,1,2.147,1.166A3.7,3.7,0,0,1,17.05,31.462Zm-2.936-4.011a3.541,3.541,0,0,0-1.772-1.662,3.551,3.551,0,0,0-.1,2.47,3.542,3.542,0,0,0,1.848,1.608s0.093-.341.175-0.792A3.059,3.059,0,0,0,14.114,27.452Zm5.744,0.309A3.821,3.821,0,0,1,17.78,26.5a3.117,3.117,0,0,1,2.328-.6,3.807,3.807,0,0,1,2.044,1.343A4.2,4.2,0,0,1,19.858,27.76Zm-2.625-4.269a3.519,3.519,0,0,0-1.622-1.8,3.218,3.218,0,0,0-.272,2.482,3.52,3.52,0,0,0,1.7,1.75A4.269,4.269,0,0,0,17.232,23.491ZM22.96,24.3a3.824,3.824,0,0,1-1.968-1.426,3.221,3.221,0,0,1,2.339-.433,3.805,3.805,0,0,1,1.926,1.509s-0.309.129-.725,0.261A2.987,2.987,0,0,1,22.96,24.3Zm-2.29-4.5a3.5,3.5,0,0,0-1.462-1.925,2.588,2.588,0,0,0-.363.771,3.2,3.2,0,0,0-.085,1.71A3.5,3.5,0,0,0,20.3,22.233,4.09,4.09,0,0,0,20.67,19.793Zm5.666,1.3a3.822,3.822,0,0,1-1.843-1.585,3.411,3.411,0,0,1,2.37-.238,3.715,3.715,0,0,1,1.776,1.641A3.4,3.4,0,0,1,26.336,21.095Zm-1.9-4.677a3.564,3.564,0,0,0-1.311-2.057,3.826,3.826,0,0,0-.64,2.457,3.474,3.474,0,0,0,1.379,2A3.841,3.841,0,0,0,24.434,16.417Zm5.531,1.757a3.819,3.819,0,0,1-1.705-1.733,3.467,3.467,0,0,1,2.4-.023A3.712,3.712,0,0,1,32.288,18.2,3.462,3.462,0,0,1,29.964,18.175Zm-1.488-4.8a3.54,3.54,0,0,0-1.131-2.154,3.778,3.778,0,0,0-.86,2.377,3.451,3.451,0,0,0,1.2,2.1A3.789,3.789,0,0,0,28.476,13.373Zm5.345,2.184a3.825,3.825,0,0,1-1.555-1.87,3.523,3.523,0,0,1,2.4.2A3.708,3.708,0,0,1,36.147,15.8,3.524,3.524,0,0,1,33.821,15.558Zm-1.065-4.889a3.519,3.519,0,0,0-.942-2.238,3.736,3.736,0,0,0-1.072,2.277A3.435,3.435,0,0,0,31.761,12.9,3.737,3.737,0,0,0,32.756,10.669Zm5.126,2.59a3.827,3.827,0,0,1-1.392-2,3.585,3.585,0,0,1,2.389.417,3.711,3.711,0,0,1,1.311,2.034A3.587,3.587,0,0,1,37.882,13.259ZM37.245,8.318a3.5,3.5,0,0,0-.747-2.3,3.691,3.691,0,0,0-1.273,2.158,3.414,3.414,0,0,0,.828,2.265A3.682,3.682,0,0,0,37.245,8.318Zm4.875,2.976A3.83,3.83,0,0,1,40.9,9.185a3.643,3.643,0,0,1,2.355.639,3.714,3.714,0,0,1,1.134,2.14A3.662,3.662,0,0,1,42.121,11.294ZM41.916,6.339a3.479,3.479,0,0,0-.546-2.354A3.646,3.646,0,0,0,39.907,6a3.4,3.4,0,0,0,.63,2.322A3.631,3.631,0,0,0,41.916,6.339Zm4.6,3.366a3.738,3.738,0,0,1-1.026-2.178,2.834,2.834,0,0,1,.8.049,3.156,3.156,0,0,1,1.482.751,3.724,3.724,0,0,1,.949,2.233A4.025,4.025,0,0,1,46.52,9.705Zm0.216-4.961a3.46,3.46,0,0,0-.342-2.386,3.366,3.366,0,0,0-1.628,1.893,3.461,3.461,0,0,0,.438,2.39A6.309,6.309,0,0,0,45.83,6.1,3.058,3.058,0,0,0,46.735,4.744Zm4.313,3.783a3.746,3.746,0,0,1-.838-2.261A3.77,3.77,0,0,1,51,6.381a2.6,2.6,0,0,1,1.4.815A3.734,3.734,0,0,1,53.158,9.5a3.826,3.826,0,0,1-.755-0.2A2.948,2.948,0,0,1,51.048,8.527ZM51.673,3.54a3.445,3.445,0,0,0-.136-2.4,4.1,4.1,0,0,0-.739.423,3.259,3.259,0,0,0-1.032,1.384A3.439,3.439,0,0,0,50,5.359a4.162,4.162,0,0,0,.672-0.485A3.861,3.861,0,0,0,51.673,3.54Zm3.983,4.178a3.752,3.752,0,0,1-.643-2.326,3.381,3.381,0,0,1,2.105,1.095,3.647,3.647,0,0,1,.554,2.337A3.365,3.365,0,0,1,55.657,7.718ZM56.7,2.783A3.525,3.525,0,0,0,56.769.352a3.913,3.913,0,0,0-1.914,1.7,3.426,3.426,0,0,0,.024,2.419A3.928,3.928,0,0,0,56.7,2.783Zm3.614,4.494A3.761,3.761,0,0,1,59.872,4.9,3.451,3.451,0,0,1,61.88,6.2a3.655,3.655,0,0,1,.357,2.379A3.445,3.445,0,0,1,60.317,7.277Zm1.46-4.8a3.5,3.5,0,0,0,.269-2.41A3.838,3.838,0,0,0,60,1.563a3.412,3.412,0,0,0-.181,2.408A3.842,3.842,0,0,0,61.777,2.474ZM65,7.2a3.776,3.776,0,0,1-.244-2.41A3.526,3.526,0,0,1,66.647,6.28,3.672,3.672,0,0,1,66.8,8.686,3.524,3.524,0,0,1,65,7.2ZM66.856,2.56a3.489,3.489,0,0,0,.47-2.375,3.771,3.771,0,0,0-2.168,1.291,3.4,3.4,0,0,0-.382,2.379A3.769,3.769,0,0,0,66.856,2.56Zm2.821,4.918a3.794,3.794,0,0,1-.04-2.426,3.591,3.591,0,0,1,1.753,1.678,3.688,3.688,0,0,1-.049,2.415A3.608,3.608,0,0,1,69.678,7.478Zm2.236-4.439A3.477,3.477,0,0,0,72.582.715,3.707,3.707,0,0,0,70.316,1.79a3.386,3.386,0,0,0-.579,2.334A3.687,3.687,0,0,0,71.914,3.039Zm2.4,5.137a3.715,3.715,0,0,1,.161-2.4,3.591,3.591,0,0,1,.679.411,3.1,3.1,0,0,1,.933,1.363,3.714,3.714,0,0,1-.255,2.409A3.861,3.861,0,0,1,74.31,8.176Zm2.608-4.257a3.47,3.47,0,0,0,.863-2.254,4.217,4.217,0,0,0-.853.1,2.745,2.745,0,0,0-1.5.8,3.463,3.463,0,0,0-.781,2.3,4.314,4.314,0,0,0,.815-0.186A3.119,3.119,0,0,0,76.918,3.919Zm1.938,5.368a3.734,3.734,0,0,1,.366-2.379,3.065,3.065,0,0,1,1.472,1.846,3.73,3.73,0,0,1-.462,2.383,5.507,5.507,0,0,1-.568-0.522A2.879,2.879,0,0,1,78.856,9.287ZM81.836,5.2a3.466,3.466,0,0,0,1.051-2.17,3.245,3.245,0,0,0-.858.03,3.338,3.338,0,0,0-1.579.724,3.455,3.455,0,0,0-.974,2.226A4.383,4.383,0,0,0,81.836,5.2Zm1.456,5.555a3.756,3.756,0,0,1,.57-2.345,3.324,3.324,0,0,1,1.311,1.96,3.659,3.659,0,0,1-.654,2.313A3.305,3.305,0,0,1,83.292,10.756Zm3.323-3.83a3.55,3.55,0,0,0,1.243-2.1,3.967,3.967,0,0,0-2.506.579,3.451,3.451,0,0,0-1.159,2.133A3.981,3.981,0,0,0,86.615,6.927Zm0.976,5.651a3.775,3.775,0,0,1,.77-2.293,3.372,3.372,0,0,1,1.128,2.087,3.672,3.672,0,0,1-.85,2.253A3.358,3.358,0,0,1,87.591,12.578Zm3.628-3.519a3.548,3.548,0,0,0,1.415-1.985,3.909,3.909,0,0,0-2.535.345,3.447,3.447,0,0,0-1.335,2.025A3.911,3.911,0,0,0,91.219,9.059Zm0.507,5.683a3.8,3.8,0,0,1,.964-2.225,3.424,3.424,0,0,1,.933,2.2,3.7,3.7,0,0,1-1.041,2.178A3.416,3.416,0,0,1,91.726,14.741Zm3.9-3.188A3.544,3.544,0,0,0,97.206,9.7a3.849,3.849,0,0,0-2.541.111,3.451,3.451,0,0,0-1.5,1.9A3.852,3.852,0,0,0,95.629,11.554Zm0.04,5.679a3.817,3.817,0,0,1,1.152-2.14,3.471,3.471,0,0,1,.73,2.284,3.721,3.721,0,0,1-1.224,2.088A3.476,3.476,0,0,1,95.669,17.233ZM99.816,14.4a3.549,3.549,0,0,0,1.726-1.719,3.79,3.79,0,0,0-2.527-.117,3.446,3.446,0,0,0-1.654,1.77A3.787,3.787,0,0,0,99.816,14.4Zm-0.421,5.641a3.844,3.844,0,0,1,1.331-2.042,3.52,3.52,0,0,1,.518,2.354,3.741,3.741,0,0,1-1.4,1.984A3.53,3.53,0,0,1,99.395,20.037Zm4.358-2.474A3.547,3.547,0,0,0,105.616,16a3.739,3.739,0,0,0-2.492-.343,3.453,3.453,0,0,0-1.8,1.625A3.714,3.714,0,0,0,103.753,17.563Zm-0.889,5.584a3.768,3.768,0,0,1,1.481-1.906,2.276,2.276,0,0,1,.319.727,3.044,3.044,0,0,1,.017,1.641,3.769,3.769,0,0,1-1.564,1.865A3.768,3.768,0,0,1,102.864,23.147Zm4.552-2.108a3.552,3.552,0,0,0,1.986-1.407,2.934,2.934,0,0,0-4.4.944s0.329,0.149.769,0.305A3.167,3.167,0,0,0,107.416,21.039Zm-1.386,5.517a3.8,3.8,0,0,1,1.639-1.78,2.943,2.943,0,0,1,.169,2.359,3.788,3.788,0,0,1-1.718,1.731A3.915,3.915,0,0,1,106.03,26.556Zm4.751-1.757a3.549,3.549,0,0,0,2.094-1.236,3.4,3.4,0,0,0-2.43-.719,3.533,3.533,0,0,0-2.06,1.324A4.557,4.557,0,0,0,110.781,24.8ZM108.9,30.206a3.82,3.82,0,0,1,1.786-1.642,3.242,3.242,0,0,1,.007,2.34,3.816,3.816,0,0,1-1.862,1.586s-0.078-.319-0.141-0.742A2.883,2.883,0,0,1,108.9,30.206Zm4.924-1.388a3.544,3.544,0,0,0,2.187-1.057,2.684,2.684,0,0,0-.714-0.486,3.318,3.318,0,0,0-1.685-.405,3.538,3.538,0,0,0-2.162,1.147A4.013,4.013,0,0,0,113.827,28.818Zm-2.365,5.255a3.845,3.845,0,0,1,1.923-1.491,3.3,3.3,0,0,1-.213,2.346,3.741,3.741,0,0,1-1.967,1.414A3.287,3.287,0,0,1,111.462,34.073Zm5.007-.966a3.636,3.636,0,0,0,2.293-.886,3.92,3.92,0,0,0-2.321-1.083,3.533,3.533,0,0,0-2.249.962A3.939,3.939,0,0,0,116.469,33.108Zm-2.778,5.026a3.878,3.878,0,0,1,2.046-1.329,3.357,3.357,0,0,1-.434,2.331,3.77,3.77,0,0,1-2.084,1.248A3.356,3.356,0,0,1,113.691,38.133Zm5.052-.538A3.634,3.634,0,0,0,121.1,36.9a3.85,3.85,0,0,0-2.2-1.285,3.531,3.531,0,0,0-2.319.772A3.858,3.858,0,0,0,118.743,37.595Zm-3.167,4.764a3.9,3.9,0,0,1,2.156-1.156,3.424,3.424,0,0,1-.657,2.3,3.786,3.786,0,0,1-2.187,1.07A3.428,3.428,0,0,1,115.576,42.359Zm5.059-.109a3.619,3.619,0,0,0,2.4-.491,3.771,3.771,0,0,0-2.055-1.471,3.514,3.514,0,0,0-2.372.574A3.774,3.774,0,0,0,120.635,42.25Zm-3.529,4.474a3.923,3.923,0,0,1,2.252-.974,3.5,3.5,0,0,1-.879,2.24,3.816,3.816,0,0,1-2.276.887A3.512,3.512,0,0,1,117.106,46.723Zm5.026,0.318a3.611,3.611,0,0,0,2.432-.288,3.7,3.7,0,0,0-1.893-1.645,3.516,3.516,0,0,0-2.409.375A3.687,3.687,0,0,0,122.132,47.041ZM118.273,51.2a3.854,3.854,0,0,1,2.3-.777,2.307,2.307,0,0,1-.162.783,3.065,3.065,0,0,1-.907,1.375,3.838,3.838,0,0,1-2.348.7A3.606,3.606,0,0,1,118.273,51.2Zm4.955,0.739a3.6,3.6,0,0,0,2.443-.085,2.9,2.9,0,0,0-4.171-1.622s0.181,0.3.449,0.678A3.128,3.128,0,0,0,123.228,51.938Zm-4.25,3.831a3.873,3.873,0,0,1,2.365-.584,2.934,2.934,0,0,1-1.183,2.055,3.858,3.858,0,0,1-2.405.5A3.974,3.974,0,0,1,118.978,55.769Zm4.944,1.139a3.593,3.593,0,0,0,2.436.117,3.325,3.325,0,0,0-1.619-1.928,3.579,3.579,0,0,0-2.459-.027A4.537,4.537,0,0,0,123.922,56.908Zm-4.615,3.472a3.879,3.879,0,0,1,2.41-.389,3.3,3.3,0,0,1-1.316,1.952,3.782,3.782,0,0,1-2.413.3A3.287,3.287,0,0,1,119.307,60.38Zm4.871,1.539a3.669,3.669,0,0,0,2.444.315,3.88,3.88,0,0,0-1.518-2.053,3.572,3.572,0,0,0-2.443-.227A3.9,3.9,0,0,0,124.178,61.919Z" transform="translate(-0.406 -0.063)"/>
  <path class="cls-2" d="M62.034,31.426V85.409h3.939V31.426M44.088,78.36H31.853a7.224,7.224,0,0,1-7.236-7.212H51.324A7.224,7.224,0,0,1,44.088,78.36Zm6.09-6.291L38.911,35.841a0.986,0.986,0,0,0-1.881,0L25.764,72.069a0.984,0.984,0,0,0,1.881.581l10.326-33.2L48.3,72.65a0.984,0.984,0,0,0,1.881-.581h0ZM37.557,37.023a33.805,33.805,0,0,0,14.114,3.413,25.546,25.546,0,0,0,12.82-3.45,0.983,0.983,0,1,0-.976-1.706,23.573,23.573,0,0,1-11.844,3.195,31.844,31.844,0,0,1-13.288-3.232,0.982,0.982,0,1,0-.826,1.781h0ZM83.918,78.36H96.154a7.224,7.224,0,0,0,7.236-7.212H76.682A7.224,7.224,0,0,0,83.918,78.36ZM79.71,72.65l10.326-33.2,10.326,33.2a0.984,0.984,0,0,0,1.881-.581L90.976,35.841a0.986,0.986,0,0,0-1.881,0L77.829,72.069a0.985,0.985,0,0,0,1.881.581h0Zm9.913-37.408a31.846,31.846,0,0,1-13.288,3.232,23.569,23.569,0,0,1-11.844-3.195,0.983,0.983,0,1,0-.976,1.706,25.542,25.542,0,0,0,12.819,3.45,33.8,33.8,0,0,0,14.114-3.413,0.982,0.982,0,1,0-.826-1.781h0ZM72.56,96.452H55.446l2.091-8.54a3.291,3.291,0,0,1,3.2-2.5h6.535a3.29,3.29,0,0,1,3.2,2.5Zm9.688,3.479H45.759a1.739,1.739,0,1,1,0-3.479H82.248A1.739,1.739,0,1,1,82.248,99.931ZM58.872,32.407H69.134a0.981,0.981,0,1,0,0-1.962H58.872a0.981,0.981,0,1,0,0,1.962m8.84-4.677A3.709,3.709,0,1,1,64,24.034,3.7,3.7,0,0,1,67.712,27.73Z" transform="translate(-0.406 -0.063)"/>
</svg>
